<svg width="19.218750" height="19.218750" viewBox="0 0 19.2188 19.2188" fill="none" xmlns="http://www.w3.org/2000/svg" xmlns:xlink="http://www.w3.org/1999/xlink">
	<desc>
			Created with Pixso.
	</desc>
	<defs/>
	<path id="Vector" d="M9.59 0C4.28 0 0 4.28 0 9.59C0 14.9 4.28 19.21 9.59 19.21C14.9 19.21 19.21 14.9 19.21 9.59C19.21 4.28 14.9 0 9.59 0ZM9.59 18.12C4.9 18.12 1.09 14.28 1.09 9.59C1.09 4.9 4.9 1.09 9.59 1.09C14.28 1.09 18.12 4.9 18.12 9.59C18.12 14.28 14.28 18.12 9.59 18.12Z" fill="#DC2626" fill-opacity="1.000000" fill-rule="nonzero"/>
	<path id="Vector" d="M12.46 6.71C12.25 6.5 11.9 6.5 11.68 6.71L9.59 8.81L7.5 6.71C7.28 6.5 6.93 6.5 6.71 6.71C6.5 6.93 6.5 7.28 6.71 7.5L8.81 9.59L6.71 11.68C6.5 11.9 6.5 12.25 6.71 12.46C6.81 12.56 6.96 12.62 7.09 12.62C7.21 12.62 7.37 12.56 7.46 12.46L9.56 10.37L11.65 12.46C11.75 12.56 11.9 12.62 12.03 12.62C12.15 12.62 12.31 12.56 12.4 12.46C12.62 12.25 12.62 11.9 12.4 11.68L10.37 9.59L12.46 7.5C12.65 7.28 12.65 6.93 12.46 6.71Z" fill="#DC2626" fill-opacity="1.000000" fill-rule="nonzero"/>
</svg>
