<svg width="17.277344" height="17.286133" viewBox="0 0 17.2773 17.2861" fill="none" xmlns="http://www.w3.org/2000/svg" xmlns:xlink="http://www.w3.org/1999/xlink">
	<desc>
			Created with Pixso.
	</desc>
	<defs/>
	<path id="Vector" d="M3.99 17.26C3.77 17.26 3.54 17.21 3.34 17.07C2.98 16.81 2.78 16.36 2.87 15.91L3.63 11.13L0.34 7.73C0.03 7.42 -0.09 6.94 0.06 6.52C0.2 6.1 0.53 5.82 0.95 5.73L5.54 5L7.59 0.64C7.79 0.25 8.18 0 8.6 0C9.06 0 9.42 0.25 9.62 0.64L11.73 4.97L16.31 5.7C16.73 5.76 17.07 6.07 17.21 6.49C17.35 6.91 17.24 7.39 16.93 7.7L13.61 11.1L14.4 15.91C14.48 16.36 14.29 16.81 13.92 17.07C13.58 17.32 13.13 17.35 12.74 17.15L8.63 14.9L4.53 17.15C4.36 17.24 4.19 17.26 3.99 17.26ZM1.04 7.05L4.44 10.54C4.61 10.71 4.7 10.96 4.64 11.22L3.85 16.08C3.82 16.2 3.91 16.25 3.94 16.28C3.99 16.34 4.05 16.31 4.08 16.28L8.3 13.97C8.52 13.86 8.77 13.86 9 13.97L13.22 16.25C13.25 16.25 13.27 16.28 13.36 16.25C13.39 16.22 13.44 16.17 13.44 16.05L12.66 11.16C12.63 10.91 12.68 10.68 12.85 10.49L16.23 7C16.31 6.91 16.28 6.83 16.28 6.77C16.28 6.75 16.23 6.66 16.17 6.66L11.45 5.93C11.19 5.9 11 5.73 10.88 5.51L8.77 1.06C8.75 0.98 8.69 0.98 8.63 0.98C8.6 0.98 8.55 1.01 8.49 1.06L6.38 5.54C6.27 5.76 6.07 5.93 5.82 5.96L1.12 6.72C1.04 6.72 1.01 6.8 1.01 6.83C0.98 6.86 0.95 6.97 1.04 7.05Z" fill="#3056D3" fill-opacity="1.000000" fill-rule="nonzero"/>
</svg>
