<svg width="19.218750" height="19.218750" viewBox="0 0 19.2188 19.2188" fill="none" xmlns="http://www.w3.org/2000/svg" xmlns:xlink="http://www.w3.org/1999/xlink">
	<desc>
			Created with Pixso.
	</desc>
	<defs/>
	<path id="Vector" d="M9.59 19.21C4.28 19.21 0 14.9 0 9.59C0 4.28 4.28 0 9.59 0C14.9 0 19.21 4.28 19.21 9.59C19.21 14.9 14.9 19.21 9.59 19.21ZM9.59 1.09C4.9 1.09 1.09 4.9 1.09 9.59C1.09 14.28 4.9 18.12 9.59 18.12C14.28 18.12 18.12 14.28 18.12 9.59C18.12 4.9 14.28 1.09 9.59 1.09Z" fill="#3056D3" fill-opacity="1.000000" fill-rule="nonzero"/>
	<path id="Vector" d="M8.53 11.78C8.31 11.78 8.12 11.71 7.93 11.56L5.87 9.56C5.65 9.34 5.65 9 5.87 8.78C6.09 8.56 6.43 8.56 6.65 8.78L8.53 10.62L12.53 6.75C12.75 6.53 13.09 6.53 13.31 6.75C13.53 6.96 13.53 7.31 13.31 7.53L9.15 11.59C8.93 11.71 8.72 11.78 8.53 11.78Z" fill="#3056D3" fill-opacity="1.000000" fill-rule="nonzero"/>
</svg>
